<?xml version="1.0" encoding="utf-8"?>
<!-- Generator: Adobe Illustrator 17.0.0, SVG Export Plug-In . SVG Version: 6.00 Build 0)  -->
<!DOCTYPE svg PUBLIC "-//W3C//DTD SVG 1.1//EN" "http://www.w3.org/Graphics/SVG/1.1/DTD/svg11.dtd">
<svg version="1.1" id="Layer_1" xmlns="http://www.w3.org/2000/svg" xmlns:xlink="http://www.w3.org/1999/xlink" x="0px" y="0px"
	 width="117px" height="70px" viewBox="0 0 117 70" enable-background="new 0 0 117 70" xml:space="preserve">
<path fill="#FFFFFF" d="M61.588,40.998c1.329-0.308,2.599-0.593,3.806-1.084c0.747-0.304,1.473-0.665,2.194-1.029
	c0.275-0.139,0.55-0.312,0.731-0.607c-0.05-0.585-0.346-1.08-0.634-1.568c-0.391-0.662-0.8-1.315-1.236-1.947
	c-0.888-1.29-1.612-2.669-2.188-4.119c-0.304-0.765-0.483-1.579-0.731-2.414c-0.465-0.375-0.476-0.376-0.398-1.042
	c0.106-0.901,0.23-1.8,0.346-2.7c0.028-0.215,0.061-0.427,0.223-0.635c0.081,0.035,0.183,0.052,0.246,0.11
	c0.625,0.573,1.215,1.187,1.871,1.721c0.661,0.538,1.213,1.179,1.831,1.757c0.248,0.232,0.441,0.503,0.519,0.844
	c0.054,0.236-0.094,0.455-0.332,0.44c-0.152-0.01-0.303-0.071-0.448-0.125c-0.349-0.129-0.684-0.314-1.078-0.246
	c-0.057,0.01-0.113,0.03-0.21,0.057c0.046,0.13,0.068,0.266,0.136,0.372c0.445,0.699,0.896,1.393,1.353,2.084
	c0.435,0.658,0.889,1.304,1.316,1.967c0.509,0.79,0.814,1.66,0.961,2.587c0.003,0.019,0.002,0.04,0.007,0.059
	c0.358,1.122,0.101,2.222-0.136,3.317c-0.121,0.557-0.288,1.107-0.474,1.646c-0.333,0.965-0.967,1.718-1.793,2.292
	c-0.68,0.473-1.427,0.841-2.196,1.153c-0.896,0.364-1.811,0.674-2.749,0.912c-0.075,0.019-0.147,0.047-0.255,0.083
	c-0.029,0.191-0.068,0.381-0.085,0.574c-0.066,0.769-0.218,1.52-0.451,2.256c-0.077,0.243-0.127,0.496-0.177,0.747
	c-0.165,0.827-0.535,1.564-1.001,2.256c-0.53,0.786-1.1,1.544-1.74,2.244c-0.399,0.435-0.827,0.845-1.263,1.244
	c-1.338,1.226-2.678,2.452-4.125,3.55c-1.824,1.383-3.665,2.743-5.67,3.86c-1.019,0.568-2.081,1.037-3.207,1.357
	c-0.649,0.185-1.317,0.243-1.982,0.312c-0.23,0.024-0.474-0.02-0.703-0.073c-1.124-0.258-2.196-0.647-3.106-1.382
	c-0.494-0.4-0.892-0.885-1.184-1.457c-0.178-0.35-0.401-0.679-0.483-1.07c-0.065-0.307-0.099-0.62-0.164-0.926
	c-0.285-1.329-0.267-2.664-0.077-3.999c0.216-1.523,0.536-3.026,0.949-4.508c0.169-0.606,0.403-1.194,0.606-1.791
	c0.024-0.07,0.035-0.143,0.066-0.273c-0.119,0.031-0.197,0.032-0.25,0.068c-0.326,0.222-0.635,0.47-0.97,0.677
	c-1.156,0.714-2.305,1.436-3.542,2.018c-1.357,0.639-2.736,1.221-4.119,1.798c-1.363,0.568-2.713,1.172-4.085,1.716
	c-0.934,0.37-1.904,0.648-2.847,0.997c-1.099,0.407-2.24,0.6-3.396,0.739c-0.547,0.066-1.087,0.198-1.635,0.258
	c-0.586,0.065-1.177,0.115-1.765,0.111c-0.768-0.006-1.535-0.071-2.303-0.112c-0.854-0.045-1.671-0.263-2.486-0.504
	c-1.046-0.31-2.02-0.783-2.987-1.275c-0.035-0.018-0.07-0.037-0.103-0.058c-1.369-0.863-2.559-1.917-3.398-3.314
	c-0.704-1.172-1.218-2.431-1.468-3.782c-0.093-0.502-0.122-1.016-0.161-1.526c-0.047-0.61-0.084-1.22-0.105-1.831
	c-0.011-0.334,0.014-0.67,0.035-1.004c0.02-0.315,0.067-0.628,0.083-0.943c0.021-0.435,0.086-0.862,0.196-1.282
	c0.29-1.105,0.588-2.208,0.881-3.312c0.035-0.133,0.059-0.27,0.091-0.404c0.037-0.153,0.057-0.313,0.119-0.455
	c0.365-0.85,0.718-1.708,1.194-2.505c0.099-0.165,0.218-0.318,0.325-0.472c0.348,0.186,0.417,0.282,0.351,0.545
	c-0.052,0.208-0.123,0.417-0.216,0.61c-0.428,0.891-0.764,1.815-1.018,2.77c-0.075,0.283-0.213,0.55-0.29,0.832
	c-0.218,0.802-0.325,1.619-0.344,2.452c-0.018,0.789-0.051,1.576-0.015,2.366c0.033,0.736,0.17,1.445,0.368,2.151
	c0.347,1.238,0.991,2.317,1.793,3.301c0.321,0.393,0.739,0.707,1.114,1.056c0.542,0.505,1.195,0.833,1.853,1.15
	c0.98,0.473,2.002,0.825,3.065,1.067c0.622,0.142,1.25,0.171,1.881,0.174c0.67,0.004,1.341-0.006,2.011-0.034
	c0.432-0.018,0.865-0.061,1.294-0.122c0.702-0.1,1.4-0.223,2.1-0.337c0.72-0.117,1.44-0.235,2.16-0.352
	c0.117-0.019,0.238-0.017,0.35-0.05c0.68-0.203,1.365-0.393,2.033-0.628c0.76-0.268,1.503-0.583,2.256-0.869
	c0.587-0.223,1.18-0.429,1.767-0.65c0.24-0.09,0.473-0.197,0.708-0.299c1.537-0.668,3.08-1.324,4.609-2.011
	c0.88-0.396,1.772-0.786,2.597-1.283c1.13-0.68,2.307-1.289,3.374-2.076c0.277-0.205,0.372-0.429,0.287-0.76
	c-0.268-1.051-0.57-2.089-0.996-3.091c-0.424-0.997-0.849-1.996-1.217-3.015c-0.321-0.887-0.576-1.8-0.831-2.709
	c-0.1-0.355-0.311-0.695-0.197-1.053c-0.042-0.07-0.055-0.112-0.083-0.135c-0.462-0.38-0.497-0.445-0.389-1.064
	c0.112-0.64,0.243-1.277,0.376-1.913c0.08-0.384,0.17-0.766,0.269-1.146c0.049-0.188,0.13-0.369,0.191-0.538
	c0.206-0.041,0.274,0.094,0.35,0.203c0.305,0.436,0.608,0.874,0.907,1.314c0.31,0.457,0.642,0.903,0.912,1.382
	c0.359,0.637,0.795,1.219,1.205,1.82c0.088,0.129,0.162,0.272,0.223,0.417c0.107,0.255,0.058,0.348-0.273,0.561
	c-0.359-0.139-0.633-0.531-1.14-0.455c0.018,0.129,0.012,0.246,0.053,0.343c0.231,0.544,0.471,1.084,0.714,1.623
	c0.372,0.827,0.757,1.65,0.973,2.535c0.202,0.826,0.283,1.662,0.315,2.516c0.049,1.324-0.278,2.582-0.525,3.857
	c-0.109,0.56-0.245,1.116-0.395,1.667c-0.113,0.417-0.248,0.828-0.578,1.148c-0.106,0.103-0.163,0.269-0.209,0.417
	c-0.362,1.166-0.766,2.323-0.975,3.529c-0.232,1.342-0.385,2.689-0.212,4.06c0.084,0.672,0.2,1.319,0.504,1.93
	c0.319,0.642,0.781,1.132,1.419,1.455c0.333,0.169,0.666,0.342,1.011,0.484c0.458,0.188,0.928,0.323,1.437,0.295
	c0.334-0.019,0.671,0.019,1.006,0.009c1.127-0.036,2.154-0.426,3.157-0.902c1.57-0.745,3.036-1.665,4.453-2.666
	c0.739-0.522,1.44-1.096,2.185-1.609c1.074-0.74,2.015-1.639,3.03-2.449c1.019-0.814,1.939-1.736,2.792-2.719
	c0.439-0.505,0.823-1.058,1.231-1.59c0.128-0.167,0.165-0.354,0.115-0.559c-0.042-0.172-0.075-0.347-0.123-0.518
	c-0.042-0.149-0.098-0.295-0.16-0.475c-0.426,0.039-0.818,0.171-1.222,0.231c-0.877,0.132-1.749,0.308-2.629,0.403
	C55.968,46.06,55.384,46.065,54.82,46c-0.971-0.113-1.785-0.571-2.471-1.277c-0.561-0.576-0.757-1.284-0.769-2.042
	c-0.012-0.707,0.011-1.421,0.228-2.108c0.309-0.979,0.688-1.924,1.338-2.737c0.344-0.431,0.697-0.848,1.121-1.207
	c0.704-0.595,1.506-0.743,2.384-0.58c0.527,0.098,1.015,0.295,1.472,0.59c0.807,0.521,1.477,1.174,2.056,1.937
	c0.468,0.617,0.847,1.281,1.169,1.982C61.411,40.698,61.495,40.83,61.588,40.998z M53.751,41.296
	c0.368,0.345,0.802,0.512,1.269,0.578c0.309,0.044,0.628,0.028,0.942,0.031c0.671,0.006,1.335-0.076,1.998-0.162
	c0.069-0.009,0.134-0.047,0.223-0.079c-0.135-0.268-0.337-0.423-0.521-0.596c-0.475-0.447-1.04-0.699-1.678-0.806
	c-0.507-0.085-0.988,0.024-1.431,0.248C54.224,40.676,53.935,40.92,53.751,41.296z"/>
<path fill="#FFFFFF" d="M99.1,17.422c-0.223,0.103-0.393,0.023-0.566-0.082c-0.378-0.23-0.668-0.548-0.942-0.888
	c-0.11-0.137-0.235-0.263-0.355-0.392c-0.008-0.009-0.037,0.001-0.091,0.005c-0.052,0.222-0.007,0.449,0.025,0.674
	c0.091,0.624,0.196,1.246,0.285,1.871c0.092,0.644,0.164,1.291,0.258,1.935c0.136,0.936,0.284,1.871,0.425,2.806
	c0.138,0.916,0.274,1.833,0.409,2.749c0.078,0.527,0.153,1.054,0.229,1.581c0.157,1.093,0.315,2.186,0.47,3.279
	c0.17,1.21,0.332,2.421,0.506,3.63c0.135,0.936,0.291,1.868,0.422,2.805c0.106,0.762,0.194,1.526,0.28,2.29
	c0.145,1.293,0.284,2.587,0.422,3.882c0.027,0.255,0.036,0.512,0.053,0.768c0.026,0.394,0.045,0.788,0.078,1.181
	c0.057,0.691,0.061,1.379-0.023,2.068c-0.071,0.587-0.119,1.177-0.196,1.763c-0.064,0.488-0.148,0.974-0.236,1.459
	c-0.119,0.66-0.245,1.318-0.375,1.975c-0.109,0.547-0.347,1.048-0.62,1.526c-0.404,0.707-0.931,1.31-1.552,1.849
	c-0.71,0.616-1.495,1.084-2.34,1.479c-0.877,0.41-1.784,0.478-2.716,0.312c-1.401-0.249-2.494-0.999-3.421-2.065
	c-0.913-1.05-1.497-2.264-1.949-3.554c-0.129-0.369-0.185-0.765-0.265-1.151c-0.148-0.713-0.291-1.427-0.431-2.142
	c-0.076-0.386-0.139-0.775-0.214-1.162c-0.032-0.166-0.081-0.329-0.134-0.538c-0.111,0.62-0.191,1.186-0.317,1.741
	c-0.202,0.887-0.495,1.753-1.022,2.5c-0.373,0.529-0.797,1.037-1.269,1.479c-1.527,1.429-3.068,2.847-4.746,4.1
	c-1.279,0.955-2.57,1.897-4,2.629c-1.001,0.512-1.973,1.079-2.971,1.595c-1.026,0.53-2.106,0.889-3.276,0.926
	c-1.547,0.049-2.863-0.455-3.906-1.617c-0.33-0.367-0.611-0.767-0.842-1.209c-0.346-0.662-0.505-1.362-0.56-2.098
	c-0.116-1.542-0.071-3.075,0.218-4.597c0.133-0.697,0.34-1.374,0.579-2.042c0.106-0.297,0.205-0.597,0.29-0.9
	c0.258-0.913,0.615-1.789,1.002-2.652c0.112-0.249,0.266-0.483,0.427-0.705c0.14-0.193,0.302-0.209,0.525-0.103
	c0.203,0.096,0.303,0.264,0.257,0.478c-0.024,0.112-0.081,0.22-0.138,0.321c-0.59,1.033-0.986,2.15-1.35,3.273
	c-0.255,0.787-0.36,1.616-0.401,2.446c-0.023,0.473-0.018,0.947-0.022,1.421c-0.004,0.52,0.12,1.018,0.285,1.505
	c0.183,0.538,0.527,0.972,0.964,1.323c0.989,0.794,2.111,1.113,3.377,0.925c0.866-0.128,1.697-0.369,2.481-0.749
	c0.816-0.396,1.618-0.82,2.418-1.249c0.661-0.354,1.312-0.725,1.961-1.099c0.359-0.207,0.709-0.428,1.055-0.654
	c0.578-0.378,1.163-0.746,1.719-1.153c0.636-0.466,1.262-0.95,1.862-1.461c0.976-0.832,1.938-1.681,2.884-2.546
	c0.406-0.372,0.761-0.8,1.136-1.206c0.17-0.185,0.204-0.387,0.166-0.65c-0.167-1.174-0.453-2.319-0.715-3.473
	c-0.245-1.079-0.595-2.124-0.898-3.183c-0.195-0.681-0.467-1.34-0.71-2.007c-0.561-1.538-1.279-3.01-1.922-4.513
	c-0.124-0.289-0.275-0.568-0.42-0.848c-0.234-0.453-0.495-0.894-0.701-1.36c-0.082-0.186-0.078-0.424-0.064-0.636
	c0.056-0.845,0.116-1.69,0.206-2.532c0.046-0.428,0.159-0.849,0.251-1.32c0.103,0.057,0.201,0.081,0.25,0.144
	c0.169,0.217,0.331,0.441,0.478,0.674c0.957,1.519,1.866,3.067,2.625,4.696c0.441,0.946,0.821,1.92,1.222,2.884
	c0.795,1.912,1.487,3.858,2.047,5.856c0.261,0.93,0.442,1.876,0.702,2.804c0.101,0.36,0.212,0.718,0.316,1.077
	c0.215,0.737,0.367,1.487,0.511,2.241c0.361,1.892,1.165,3.555,2.629,4.847c1.047,0.923,2.299,1.266,3.671,1.171
	c0.347-0.024,0.69-0.152,1.028-0.256c0.282-0.087,0.559-0.193,0.827-0.316c0.928-0.425,1.694-1.074,2.421-1.777
	c0.213-0.206,0.295-0.452,0.299-0.744c0.01-0.632,0.011-1.261-0.069-1.891c-0.109-0.861-0.172-1.727-0.271-2.589
	c-0.141-1.234-0.292-2.467-0.446-3.699c-0.125-0.998-0.257-1.995-0.392-2.991c-0.177-1.309-0.362-2.617-0.54-3.925
	c-0.101-0.743-0.187-1.487-0.293-2.229c-0.128-0.898-0.272-1.794-0.407-2.691c-0.097-0.644-0.195-1.287-0.287-1.931
	c-0.138-0.976-0.269-1.953-0.406-2.928c-0.143-1.015-0.286-2.031-0.436-3.045c-0.142-0.956-0.297-1.91-0.437-2.865
	c-0.092-0.625-0.172-1.251-0.252-1.877c-0.159-1.252-0.329-2.502-0.462-3.757c-0.048-0.45-0.049-0.904-0.154-1.349
	c-0.099-0.421-0.171-0.851-0.392-1.232c-0.109-0.187-0.101-0.377-0.048-0.572c0.094-0.342,0.178-0.687,0.295-1.021
	c0.242-0.692,0.343-1.415,0.508-2.124c0.026-0.11,0.052-0.228,0.112-0.322c0.084-0.131,0.187-0.274,0.369-0.257
	c0.212,0.02,0.286,0.196,0.326,0.371c0.186,0.817,0.612,1.535,0.939,2.292c0.407,0.941,0.792,1.889,1.096,2.871
	c0.267,0.864,0.592,1.711,0.877,2.57C98.807,16.156,99.018,16.768,99.1,17.422z"/>
<path fill="#FFFFFF" d="M111.326,56.544c-0.257-0.013-0.354-0.138-0.351-0.344c0.002-0.097,0.027-0.195,0.05-0.29
	c0.192-0.805,0.418-1.603,0.504-2.431c0.022-0.215,0.055-0.429,0.068-0.645c0.082-1.381,0.055-2.763-0.017-4.141
	c-0.084-1.614-0.235-3.225-0.388-4.834c-0.121-1.275-0.282-2.546-0.441-3.817c-0.105-0.841-0.237-1.678-0.357-2.517
	c-0.151-1.053-0.296-2.108-0.458-3.159c-0.124-0.799-0.268-1.594-0.408-2.39c-0.263-1.494-0.529-2.987-0.794-4.481
	c-0.248-1.396-0.499-2.792-0.743-4.189c-0.149-0.854-0.286-1.711-0.434-2.566c-0.192-1.106-0.398-2.21-0.581-3.318
	c-0.097-0.583-0.161-1.171-0.236-1.757c-0.047-0.372-0.094-0.743-0.128-1.116c-0.034-0.371-0.053-0.744-0.078-1.116
	c-0.009-0.138-0.015-0.276-0.02-0.414c-0.026-0.706-0.286-1.347-0.599-1.96c-0.131-0.256-0.145-0.471-0.068-0.73
	c0.128-0.434,0.242-0.873,0.349-1.313c0.097-0.402,0.187-0.807,0.261-1.214c0.057-0.314,0.187-0.59,0.341-0.913
	c0.12,0.079,0.224,0.111,0.266,0.18c0.254,0.42,0.499,0.841,0.672,1.308c0.447,1.201,0.976,2.367,1.541,3.518
	c0.103,0.21,0.152,0.447,0.243,0.664c0.329,0.781,0.673,1.555,0.996,2.338c0.209,0.507,0.496,0.989,0.523,1.558
	c0.004,0.078,0.021,0.157,0.017,0.235c-0.01,0.232-0.236,0.352-0.421,0.209c-0.17-0.131-0.321-0.29-0.463-0.452
	c-0.325-0.371-0.639-0.751-0.96-1.125c-0.047-0.055-0.109-0.097-0.158-0.139c-0.141,0.077-0.105,0.186-0.093,0.273
	c0.093,0.663,0.179,1.328,0.294,1.988c0.204,1.165,0.434,2.325,0.639,3.49c0.14,0.796,0.251,1.596,0.382,2.394
	c0.067,0.408,0.151,0.814,0.225,1.221c0.28,1.551,0.566,3.102,0.837,4.655c0.203,1.164,0.397,2.331,0.575,3.499
	c0.22,1.442,0.423,2.886,0.629,4.33c0.147,1.033,0.309,2.066,0.421,3.103c0.115,1.078,0.176,2.162,0.263,3.243
	c0.1,1.24,0.145,2.482,0.123,3.726c-0.028,1.601-0.184,3.184-0.548,4.748c-0.192,0.825-0.359,1.655-0.628,2.459
	c-0.218,0.653-0.454,1.301-0.689,1.949C111.447,56.363,111.376,56.457,111.326,56.544z"/>
<path fill="#FFFFFF" d="M39.565,7.712c0.108-0.377,0.221-0.733,0.31-1.094c0.151-0.611,0.291-1.224,0.427-1.839
	c0.073-0.328,0.198-0.63,0.401-0.952c0.105,0.095,0.215,0.154,0.262,0.245c0.44,0.86,0.884,1.718,1.295,2.591
	c0.243,0.517,0.494,1.028,0.761,1.534c0.596,1.133,1.193,2.268,1.619,3.481c0.137,0.389,0.28,0.777,0.402,1.171
	c0.023,0.075-0.012,0.205-0.068,0.259c-0.058,0.056-0.197,0.095-0.263,0.063c-0.174-0.083-0.347-0.189-0.487-0.321
	c-0.372-0.352-0.725-0.724-1.088-1.086c-0.081-0.081-0.173-0.151-0.294-0.255c-0.078,0.195,0.026,0.335,0.028,0.476
	c0.001,0.137,0.021,0.276,0.044,0.412c0.211,1.243,0.436,2.485,0.633,3.73c0.265,1.674,0.496,3.354,0.766,5.027
	c0.239,1.478,0.514,2.951,0.767,4.427c0.139,0.816,0.26,1.635,0.397,2.451c0.261,1.554,0.533,3.106,0.79,4.661
	c0.145,0.875,0.271,1.753,0.405,2.63c0.131,0.857,0.272,1.712,0.388,2.571c0.235,1.743,0.368,3.493,0.302,5.252
	c-0.088,2.343-0.517,4.619-1.4,6.799c-0.074,0.183-0.146,0.367-0.235,0.542c-0.081,0.158-0.192,0.293-0.421,0.292
	c-0.078-0.222-0.051-0.43,0.001-0.639c0.221-0.886,0.272-1.793,0.293-2.699c0.019-0.848,0.021-1.697,0.001-2.545
	c-0.025-1.025-0.146-2.044-0.274-3.061c-0.056-0.449-0.113-0.898-0.182-1.345c-0.137-0.896-0.278-1.791-0.425-2.685
	c-0.215-1.303-0.436-2.604-0.656-3.906c-0.242-1.438-0.486-2.876-0.727-4.314c-0.156-0.933-0.31-1.866-0.461-2.799
	c-0.176-1.089-0.351-2.178-0.519-3.267c-0.099-0.643-0.18-1.288-0.278-1.931c-0.224-1.461-0.451-2.921-0.68-4.381
	c-0.18-1.148-0.368-2.296-0.549-3.444c-0.169-1.071-0.377-2.138-0.486-3.215c-0.067-0.665-0.243-1.31-0.295-1.975
	c-0.01-0.129-0.089-0.259-0.158-0.376C39.818,8.044,39.705,7.907,39.565,7.712z"/>
<path fill="#FFFFFF" d="M74.781,48.355c-0.265,0.212-0.316,0.451-0.397,0.669c-0.254,0.683-0.491,1.373-0.753,2.053
	c-0.119,0.308-0.223,0.633-0.493,0.864c-0.516-0.216-1.021-0.431-1.53-0.639c-0.84-0.343-1.682-0.68-2.523-1.019
	c-0.337-0.136-0.424-0.278-0.325-0.641c0.124-0.456,0.274-0.905,0.418-1.355c0.144-0.45,0.296-0.898,0.441-1.348
	c0.091-0.282,0.202-0.551,0.419-0.807c0.165,0.075,0.318,0.152,0.477,0.215c1.208,0.485,2.416,0.968,3.625,1.45
	c0.072,0.029,0.149,0.053,0.225,0.062c0.165,0.02,0.3-0.072,0.362-0.237c0.301-0.791,0.602-1.582,0.903-2.373
	c0.119-0.313,0.298-0.59,0.476-0.89c1.527,0.74,3.078,1.327,4.494,2.2c0.01,0.012,0.031,0.025,0.035,0.042
	c0.035,0.152,0.066,0.305,0.103,0.478c-0.29,0.325-0.424,0.737-0.584,1.14c-0.24,0.605-0.495,1.203-0.749,1.802
	c-0.068,0.16-0.112,0.343-0.345,0.42C77.723,49.607,76.224,49.058,74.781,48.355z"/>
<path fill="#FFFFFF" d="M31.38,10.869c-0.091-0.009-0.182-0.03-0.272-0.024c-1.023,0.065-2.046,0.134-3.069,0.202
	c-0.197,0.013-0.394,0.02-0.591,0.034c-0.494,0.034-0.984,0.082-1.43,0.328c-0.026,0.014-0.073-0.01-0.143-0.023
	c0-0.085-0.023-0.183,0.004-0.265c0.094-0.279,0.192-0.559,0.312-0.828c0.201-0.449,0.401-0.899,0.635-1.33
	c0.236-0.433,0.582-0.742,1.113-0.771c0.256-0.014,0.511-0.052,0.766-0.051c1.598,0.004,3.197,0.01,4.795,0.029
	c0.433,0.005,0.865,0.058,1.297,0.095c0.184,0.016,0.297,0.16,0.233,0.329c-0.147,0.385-0.272,0.789-0.486,1.137
	c-0.676,1.098-1.479,2.099-2.5,2.899c-0.48,0.377-0.983,0.73-1.504,1.046c-0.281,0.17-0.617,0.256-0.937,0.354
	c-0.622,0.19-1.249,0.366-1.876,0.536c-0.187,0.051-0.384,0.061-0.576,0.095c-0.192,0.034-0.381,0.084-0.574,0.105
	c-0.068,0.007-0.186-0.033-0.204-0.081c-0.029-0.078-0.027-0.204,0.019-0.267c0.079-0.106,0.196-0.187,0.308-0.262
	c1.424-0.957,2.849-1.91,4.274-2.866c0.146-0.098,0.285-0.205,0.427-0.308C31.394,10.945,31.387,10.907,31.38,10.869z M33.69,9.879
	c0.017,0,0.045,0.006,0.048-0.001c0.01-0.02,0.011-0.045,0.016-0.069c-0.017,0.006-0.038,0.008-0.05,0.02
	C33.694,9.839,33.694,9.86,33.69,9.879z"/>
<path fill="#FFFFFF" d="M69.323,2.09c0.028,0.131,0.075,0.213,0.052,0.267c-0.161,0.38-0.332,0.756-0.507,1.13
	c-0.059,0.126-0.148,0.21-0.29,0.272c-0.468,0.203-0.931,0.423-1.385,0.657c-1.101,0.568-2.245,1.041-3.383,1.527
	c-1.159,0.494-2.329,0.964-3.465,1.507c-1.26,0.603-2.483,1.281-3.728,1.916c-0.473,0.241-0.961,0.454-1.444,0.677
	c-1.003,0.462-1.967,0.998-2.925,1.547c-1.043,0.597-2.084,1.197-3.115,1.813c-0.354,0.211-0.681,0.469-1.009,0.721
	c-0.119,0.091-0.204,0.227-0.294,0.331c0.078,0.34,0.311,0.497,0.544,0.64c0.183,0.113,0.391,0.186,0.585,0.282
	c0.136,0.067,0.198,0.181,0.195,0.336c-0.005,0.24-0.24,0.999-0.404,1.283c-0.349-0.072-0.661-0.23-0.944-0.442
	c-0.478-0.358-0.729-0.831-0.625-1.435c0.073-0.426,0.183-0.846,0.291-1.265c0.107-0.417,0.379-0.729,0.689-1.011
	c0.528-0.482,1.134-0.856,1.743-1.219c2.067-1.232,4.196-2.348,6.361-3.397c0.141-0.068,0.275-0.155,0.41-0.235
	c0.119-0.07,0.23-0.154,0.354-0.214c0.706-0.344,1.41-0.695,2.124-1.022c1.288-0.59,2.581-1.169,3.876-1.744
	c0.557-0.247,1.13-0.459,1.684-0.711c0.663-0.303,1.313-0.636,1.972-0.949c0.659-0.312,1.323-0.613,1.982-0.923
	C68.861,2.338,69.049,2.232,69.323,2.09z"/>
<path fill="#FFFFFF" d="M20.177,37.035c0.552,0.306,1.055,0.576,1.548,0.861c0.614,0.355,1.221,0.721,1.828,1.088
	c0.117,0.071,0.226,0.159,0.329,0.25c0.234,0.208,0.292,0.454,0.164,0.741c-0.225,0.503-0.459,1.003-0.691,1.503
	c-0.216,0.464-0.429,0.93-0.656,1.389c-0.067,0.135-0.176,0.249-0.278,0.391c-0.098-0.052-0.175-0.076-0.229-0.125
	c-0.729-0.648-1.591-1.088-2.433-1.559c-0.326-0.183-0.663-0.347-0.993-0.522c-0.189-0.1-0.267-0.236-0.228-0.429
	c0.028-0.134,0.075-0.265,0.128-0.392c0.35-0.835,0.696-1.672,1.059-2.502C19.834,37.481,19.961,37.233,20.177,37.035z"/>
<path fill="#FFFFFF" d="M83.395,58.83c0.046,0.104,0.096,0.162,0.087,0.206c-0.089,0.421-0.146,0.851-0.314,1.21
	c-0.711,0.375-1.384,0.739-2.065,1.087c-2.101,1.075-4.203,2.147-6.308,3.215c-1.087,0.551-2.177,1.097-3.272,1.634
	c-0.724,0.355-1.426,0.749-2.11,1.174c-0.045,0.028-0.103,0.037-0.187,0.066c-0.024-0.088-0.068-0.16-0.059-0.225
	c0.045-0.331,0.095-0.661,0.16-0.989c0.028-0.14,0.139-0.223,0.267-0.295c0.6-0.336,1.181-0.71,1.794-1.019
	c2.321-1.166,4.654-2.307,6.978-3.466c1.234-0.615,2.461-1.243,3.688-1.871C82.49,59.332,82.917,59.089,83.395,58.83z"/>
<path fill="#FFFFFF" d="M51.308,27.877c-0.306,0.221-0.307,0.227-0.592,0.162c-0.345-0.079-0.688-0.17-1.031-0.256
	c-0.321-0.081-0.501-0.278-0.549-0.614c-0.078-0.55-0.072-1.1-0.027-1.651c0.008-0.093,0.059-0.182,0.097-0.294
	c0.768,0.029,1.431,0.27,2.016,0.74c0.737,0.592,1.298,1.316,1.649,2.196c0.153,0.384,0.289,0.774,0.436,1.16
	c0.026,0.068,0.073,0.128,0.103,0.179c0.155,0.015,0.13-0.094,0.15-0.154c0.025-0.074,0.033-0.154,0.037-0.233
	c0.057-1.204,0.325-2.377,0.548-3.555c0.076-0.403,0.216-0.798,0.357-1.185c0.181-0.496,0.595-0.769,1.047-0.982
	c0.114-0.054,0.272-0.059,0.399-0.034c0.474,0.093,0.801,0.401,1.062,0.787c0.042,0.062,0.073,0.146,0.073,0.22
	c-0.001,0.394-0.006,0.788-0.027,1.181c-0.004,0.082-0.078,0.161-0.142,0.284c-0.109-0.082-0.189-0.129-0.253-0.193
	c-0.126-0.124-0.232-0.27-0.365-0.385c-0.371-0.322-0.663-0.318-1.059-0.017c-0.196,0.149-0.309,0.35-0.409,0.568
	c-0.191,0.418-0.265,0.867-0.334,1.312c-0.102,0.661-0.177,1.327-0.255,1.991c-0.055,0.468-0.098,0.938-0.144,1.408
	c-0.031,0.322-0.131,0.615-0.354,0.857c-0.117,0.127-0.309,0.148-0.415,0.009c-0.142-0.184-0.27-0.387-0.359-0.601
	c-0.136-0.326-0.233-0.669-0.346-1.004c-0.237-0.706-0.642-1.303-1.179-1.812C51.414,27.934,51.376,27.919,51.308,27.877z"/>
<path fill="#FFFFFF" d="M15.106,25.531c-0.158-0.092-0.24-0.14-0.322-0.188c-0.101-0.06-0.197-0.132-0.305-0.177
	c-0.455-0.191-0.773-0.094-0.981,0.345c-0.15,0.318-0.28,0.658-0.343,1.001c-0.117,0.638-0.18,1.287-0.263,1.931
	c-0.078,0.606-0.136,1.215-0.234,1.817c-0.05,0.308-0.159,0.608-0.26,0.906c-0.066,0.195-0.311,0.231-0.42,0.064
	c-0.097-0.147-0.175-0.308-0.248-0.469c-0.17-0.377-0.324-0.761-0.5-1.135c-0.304-0.646-0.699-1.234-1.172-1.769
	c-0.064-0.073-0.142-0.133-0.206-0.194c-0.381,0.132-0.387,0.146-0.729,0.002c-0.282-0.119-0.57-0.128-0.866-0.136
	c-0.378-0.009-0.501-0.106-0.536-0.487c-0.041-0.45-0.035-0.905-0.04-1.357c-0.003-0.241,0.19-0.376,0.313-0.536
	c0.049-0.015,0.085-0.033,0.123-0.036c0.802-0.069,1.391,0.319,1.912,0.875c0.707,0.754,1.286,1.591,1.704,2.538
	c0.078,0.177,0.165,0.35,0.281,0.594c0.073-0.142,0.136-0.215,0.147-0.296c0.099-0.682,0.19-1.365,0.282-2.047
	c0.098-0.722,0.188-1.444,0.446-2.135c0.112-0.3,0.251-0.575,0.444-0.828c0.276-0.364,0.729-0.517,1.143-0.345
	c0.197,0.082,0.375,0.214,0.552,0.338c0.059,0.041,0.118,0.121,0.126,0.189C15.209,24.481,15.249,24.967,15.106,25.531z"/>
<path fill="#FFFFFF" d="M82.643,16.249c-0.096-0.195-0.168-0.378-0.27-0.541c-0.286-0.459-0.453-0.965-0.582-1.481
	c-0.141-0.566-0.04-1.126,0.068-1.782c0.14,0.136,0.242,0.188,0.259,0.26c0.177,0.758,0.532,1.438,0.902,2.112
	c0.226,0.412,0.308,0.847,0.272,1.311c-0.017,0.216-0.001,0.437-0.036,0.65c-0.102,0.619-0.369,1.111-1.012,1.34
	c-0.239,0.085-0.459,0.101-0.691,0.036c-0.309-0.086-0.582-0.24-0.818-0.458c-0.114-0.105-0.231-0.206-0.336-0.298
	c-0.186,0.348-0.359,0.674-0.533,1c-0.171,0.321-0.486,0.453-0.797,0.574c-0.1,0.039-0.238,0.026-0.345-0.008
	c-0.585-0.185-0.991-0.548-1.133-1.171c-0.102-0.447-0.119-0.898-0.103-1.352c0.007-0.197,0.012-0.394,0.021-0.591
	c0.013-0.268-0.039-0.51-0.245-0.7c-0.126-0.116-0.172-0.269-0.143-0.431c0.061-0.349,0.132-0.696,0.211-1.041
	c0.015-0.066,0.087-0.119,0.146-0.195c0.423,0.25,0.663,0.604,0.687,1.056c0.028,0.51-0.01,1.024-0.024,1.536
	c-0.004,0.137-0.043,0.274-0.04,0.411c0.008,0.351,0.297,0.757,0.632,0.853c0.143,0.041,0.319,0.037,0.461-0.006
	c0.463-0.14,0.847-0.713,0.771-1.199c-0.073-0.465-0.188-0.927-0.329-1.377c-0.085-0.272-0.131-0.529-0.081-0.81
	c0.034-0.193,0.027-0.394,0.06-0.588c0.019-0.109,0.081-0.212,0.142-0.365c0.096,0.096,0.181,0.149,0.221,0.225
	c0.262,0.495,0.347,1.041,0.45,1.584c0.055,0.289,0.136,0.575,0.224,0.856c0.091,0.293,0.291,0.511,0.537,0.688
	C81.702,16.714,82.026,16.703,82.643,16.249z"/>
<path fill="#FFFFFF" d="M86.379,26.782c-0.118,0.177-0.191,0.285-0.262,0.392c-0.475-0.055-0.9-0.202-1.312-0.388
	c-0.167-0.076-0.318-0.181-0.335-0.38c-0.048-0.589-0.044-1.176,0.1-1.765c0.728-0.131,1.344,0.112,1.925,0.449
	c0.252,0.146,0.493,0.339,0.687,0.556c0.7,0.783,1.305,1.63,1.652,2.637c0.025,0.073,0.06,0.144,0.093,0.214
	c0.008,0.016,0.028,0.027,0.044,0.042c0.104-0.002,0.11-0.08,0.113-0.159c0.041-1.123,0.076-2.247,0.127-3.369
	c0.017-0.374,0.057-0.749,0.121-1.117c0.076-0.435,0.296-0.817,0.56-1.161c0.259-0.338,0.782-0.413,1.188-0.195
	c0.172,0.093,0.327,0.219,0.485,0.338c0.134,0.101,0.201,0.248,0.202,0.411c0.002,0.375-0.004,0.749-0.02,1.124
	c-0.003,0.065-0.067,0.128-0.122,0.225c-0.119-0.079-0.218-0.135-0.306-0.203c-0.124-0.097-0.232-0.217-0.362-0.302
	c-0.426-0.28-0.751-0.201-0.962,0.253c-0.106,0.228-0.192,0.482-0.214,0.731c-0.061,0.706-0.1,1.416-0.119,2.125
	c-0.019,0.73-0.012,1.46-0.002,2.19c0.005,0.398-0.115,0.731-0.428,1.012c-0.345-0.016-0.519-0.233-0.623-0.528
	c-0.233-0.657-0.588-1.249-0.989-1.81c-0.251-0.351-0.547-0.672-0.835-0.995C86.686,26.993,86.547,26.913,86.379,26.782z"/>
<path fill="#FFFFFF" d="M24.991,20.279c0.183,0.118,0.355,0.215,0.51,0.334c0.297,0.227,0.592,0.457,0.874,0.703
	c0.514,0.449,0.681,1.048,0.667,1.703c-0.01,0.438-0.141,0.857-0.332,1.249c-0.076,0.155-0.194,0.303-0.325,0.415
	c-0.677,0.579-1.47,0.827-2.355,0.768c-0.545-0.037-0.915-0.362-1.03-0.898c-0.105-0.491-0.047-0.979,0.043-1.468
	c0.192-1.042,0.651-1.977,1.13-2.905c0.126-0.244,0.227-0.502,0.341-0.752c0.04-0.089,0.073-0.186,0.134-0.259
	c0.045-0.054,0.13-0.103,0.197-0.103c0.116,0,0.163,0.105,0.168,0.206c0.009,0.177,0.004,0.354,0,0.531
	C25.009,19.958,24.999,20.113,24.991,20.279z M26.101,23.207c-0.341-0.6-0.985-0.815-1.402-1.277
	c-0.086-0.095-0.223-0.143-0.355-0.225c-0.067,0.107-0.131,0.182-0.165,0.269c-0.136,0.347-0.263,0.698-0.393,1.047
	c-0.027,0.074-0.062,0.146-0.08,0.221c-0.058,0.247,0.03,0.427,0.269,0.515c0.107,0.039,0.228,0.059,0.342,0.056
	c0.196-0.005,0.394-0.018,0.585-0.058C25.32,23.667,25.762,23.622,26.101,23.207z"/>
<path fill="#FFFFFF" d="M62.666,11.707c0.25,0.165,0.226,0.349,0.203,0.525c-0.051,0.389-0.109,0.778-0.168,1.191
	c0.12,0.094,0.244,0.187,0.363,0.285c0.259,0.212,0.513,0.431,0.775,0.639c0.339,0.269,0.434,0.643,0.466,1.045
	c0.036,0.459-0.06,0.906-0.18,1.342c-0.05,0.181-0.168,0.362-0.302,0.496c-0.432,0.432-0.967,0.684-1.572,0.746
	c-0.631,0.065-1.331-0.294-1.482-1.146c-0.021-0.116-0.029-0.236-0.023-0.354c0.044-0.833,0.163-1.645,0.588-2.389
	c0.243-0.427,0.43-0.886,0.653-1.324C62.173,12.399,62.349,12.025,62.666,11.707z M63.428,15.937
	c-0.457-0.533-0.982-0.864-1.547-1.193c-0.142,0.307-0.284,0.587-0.401,0.877c-0.122,0.303-0.047,0.475,0.245,0.628
	c0.069,0.036,0.145,0.061,0.22,0.084C62.491,16.495,62.934,16.269,63.428,15.937z"/>
<path fill="#FFFFFF" d="M30.635,38.721c0.497-0.138,0.66-0.592,0.904-0.945c0.227,0.034,0.288,0.188,0.278,0.344
	c-0.02,0.314-0.015,0.648-0.126,0.932c-0.142,0.361-0.357,0.704-0.598,1.012c-0.319,0.408-0.791,0.431-1.193,0.092
	c-0.393-0.332-0.622-0.754-0.648-1.281c-0.044-0.874,0.045-1.729,0.276-2.577c0.328-1.205,0.834-2.335,1.384-3.45
	c0.174-0.353,0.328-0.716,0.492-1.075c0.025-0.054,0.054-0.105,0.08-0.158c0.049-0.098,0.136-0.172,0.232-0.126
	c0.073,0.035,0.14,0.135,0.16,0.219c0.027,0.111,0.02,0.236,0.004,0.352c-0.059,0.431-0.15,0.853-0.353,1.246
	c-0.298,0.578-0.601,1.155-0.871,1.746c-0.221,0.483-0.397,0.987-0.593,1.481c-0.135,0.339-0.141,0.692-0.131,1.049
	C29.945,38.097,30.172,38.477,30.635,38.721z"/>
<path fill="#FFFFFF" d="M56.439,58.179c0.13,0.099,0.237,0.178,0.341,0.261c1.014,0.819,1.671,1.878,2.047,3.111
	c0.154,0.507,0.267,1.03,0.357,1.552c0.112,0.654-0.021,1.294-0.203,1.922c-0.211,0.726-0.578,1.378-1.004,1.996
	c-0.084,0.122-0.208,0.218-0.404,0.418c0.071-0.451,0.156-0.752,0.314-1.046c0.195-0.362,0.348-0.747,0.517-1.123
	c0.126-0.28,0.132-0.575,0.087-0.87c-0.233-1.531-0.795-2.918-1.822-4.097c-0.194-0.222-0.377-0.453-0.599-0.652
	c-0.158-0.42,0.135-0.802,0.189-1.225C56.267,58.347,56.363,58.279,56.439,58.179z"/>
<path fill="#FFFFFF" d="M12.83,45.704c0.053,0.132,0.082,0.169,0.08,0.204c-0.025,0.636-0.176,1.242-0.434,1.824
	c-0.102,0.231-0.291,0.368-0.506,0.475c-0.228,0.114-0.458,0.108-0.676-0.026c-0.311-0.19-0.561-0.438-0.67-0.795
	c-0.174-0.571-0.257-1.15-0.148-1.748c0.16-0.878,0.43-1.722,0.848-2.506c0.527-0.99,1.099-1.955,1.65-2.933
	c0.212-0.377,0.419-0.757,0.629-1.136c0.038-0.068,0.065-0.145,0.115-0.203c0.032-0.037,0.103-0.072,0.145-0.061
	c0.038,0.01,0.088,0.086,0.082,0.126c-0.022,0.155-0.068,0.306-0.097,0.46c-0.068,0.373-0.208,0.707-0.429,1.023
	c-0.247,0.353-0.448,0.74-0.654,1.12c-0.412,0.761-0.814,1.528-1.22,2.293c-0.297,0.56-0.36,1.16-0.286,1.779
	c0.036,0.299,0.134,0.576,0.346,0.799c0.24,0.253,0.545,0.248,0.764-0.025c0.097-0.121,0.155-0.273,0.24-0.406
	C12.658,45.894,12.724,45.83,12.83,45.704z"/>
<path fill="#FFFFFF" d="M76.291,35.992c0.044,0.533-0.097,1.119-0.415,1.66c-0.432,0.735-1.127,0.795-1.678,0.152
	c-0.422-0.493-0.599-1.061-0.486-1.699c0.171-0.97,0.429-1.915,0.779-2.838c0.383-1.01,0.725-2.036,1.083-3.056
	c0.013-0.037,0.011-0.078,0.023-0.116c0.034-0.115,0.079-0.224,0.209-0.26c0.091-0.026,0.163,0.123,0.151,0.329
	c-0.024,0.414-0.104,0.812-0.249,1.207c-0.379,1.034-0.731,2.077-1.081,3.121c-0.087,0.26-0.141,0.533-0.19,0.803
	c-0.067,0.376,0.064,0.701,0.317,0.974c0.221,0.238,0.543,0.245,0.795,0.034c0.208-0.173,0.297-0.412,0.363-0.661
	c0.046-0.177,0.012-0.48,0.25-0.442c0.219,0.035,0.104,0.334,0.129,0.518C76.298,35.778,76.291,35.838,76.291,35.992z"/>
<path fill="#FFFFFF" d="M104.089,26.963c0.087,0.548-0.08,0.95-0.266,1.339c-0.153,0.319-0.357,0.613-0.523,0.927
	c-0.302,0.573-1.113,0.67-1.56,0.031c-0.381-0.546-0.493-1.151-0.409-1.801c0.084-0.649,0.265-1.274,0.51-1.876
	c0.245-0.601,0.535-1.184,0.806-1.775c0.238-0.519,0.486-1.034,0.709-1.559c0.123-0.289,0.206-0.594,0.304-0.893
	c0.041-0.126,0.038-0.126,0.29-0.291c0.025,0.076,0.073,0.145,0.065,0.208c-0.027,0.214-0.047,0.434-0.119,0.635
	c-0.171,0.482-0.357,0.959-0.559,1.428c-0.312,0.723-0.646,1.437-0.965,2.158c-0.176,0.399-0.298,0.815-0.306,1.256
	c-0.006,0.362,0.052,0.704,0.278,1.004c0.299,0.398,0.651,0.414,0.971,0.034c0.178-0.211,0.351-0.426,0.532-0.635
	C103.895,27.098,103.963,27.061,104.089,26.963z"/>
<path fill="#FFFFFF" d="M49.919,52.057c0.047,0.091,0.092,0.138,0.091,0.184c-0.025,0.819-0.373,1.479-1.021,1.971
	c-0.329,0.25-0.642,0.237-0.982-0.003c-0.268-0.19-0.432-0.447-0.512-0.768c-0.163-0.653-0.104-1.295,0.111-1.919
	c0.198-0.576,0.428-1.142,0.665-1.704c0.214-0.509,0.452-1.006,0.513-1.565c0.012-0.113,0.071-0.224,0.12-0.33
	c0.098-0.213,0.199-0.425,0.308-0.633c0.045-0.085,0.104-0.167,0.174-0.233c0.034-0.032,0.114-0.046,0.159-0.029
	c0.043,0.016,0.097,0.083,0.095,0.125c-0.008,0.175-0.019,0.353-0.059,0.523c-0.164,0.69-0.39,1.36-0.664,2.015
	c-0.19,0.453-0.37,0.914-0.503,1.386c-0.084,0.297-0.098,0.621-0.094,0.932c0.004,0.283,0.114,0.551,0.411,0.661
	c0.29,0.108,0.541,0.003,0.757-0.199C49.625,52.341,49.76,52.209,49.919,52.057z"/>
<path fill="#FFFFFF" d="M27.544,61.479c0.086-0.148,0.115-0.245,0.18-0.299c0.166-0.138,0.344-0.263,0.525-0.38
	c0.397-0.256,0.81-0.491,1.198-0.761c0.339-0.236,0.665-0.493,0.973-0.768c0.419-0.374,0.509-0.856,0.419-1.4
	c-0.081-0.49-0.682-0.811-1.205-0.48c-0.115,0.073-0.209,0.177-0.305,0.259c-0.143-0.009-0.201-0.086-0.155-0.196
	c0.145-0.344,0.278-0.697,0.463-1.019c0.282-0.491,0.89-0.718,1.437-0.56c0.124,0.036,0.245,0.127,0.335,0.223
	c0.315,0.339,0.404,0.76,0.378,1.207c-0.039,0.658-0.222,1.279-0.526,1.863c-0.312,0.601-0.81,1.017-1.396,1.321
	c-0.646,0.335-1.311,0.636-1.971,0.944C27.817,61.47,27.717,61.458,27.544,61.479z"/>
<path fill="#FFFFFF" d="M82.597,6.987c0.116,0.214,0.101,0.429,0.063,0.633c-0.083,0.444-0.191,0.884-0.289,1.326
	c-0.009,0.038-0.022,0.076-0.036,0.113c-0.132,0.37-0.325,0.673-0.76,0.732c-0.487,0.065-0.896-0.056-1.197-0.467
	c-0.242-0.33-0.35-0.708-0.37-1.105c-0.015-0.313,0.003-0.63,0.037-0.941c0.097-0.886,0.385-1.724,0.675-2.561
	c0.18-0.52,0.344-1.046,0.522-1.567c0.067-0.196,0.119-0.404,0.248-0.562c0.156,0.029,0.112,0.126,0.109,0.188
	c-0.019,0.356-0.113,0.694-0.222,1.033c-0.228,0.711-0.459,1.424-0.633,2.149c-0.09,0.376-0.073,0.78-0.08,1.171
	c-0.006,0.306,0.128,0.581,0.321,0.807c0.123,0.144,0.292,0.266,0.464,0.345c0.276,0.127,0.629-0.033,0.719-0.326
	C82.272,7.618,82.392,7.293,82.597,6.987z"/>
<path fill="#FFFFFF" d="M106.801,49.123c0.013,0.038,0.041,0.077,0.036,0.11c-0.118,0.749-0.358,1.452-0.821,2.062
	c-0.382,0.503-0.945,0.519-1.349,0.033c-0.353-0.425-0.535-0.918-0.487-1.476c0.017-0.195,0.06-0.389,0.109-0.579
	c0.292-1.152,0.777-2.227,1.312-3.283c0.347-0.684,0.686-1.372,1.032-2.057c0.024-0.048,0.081-0.079,0.158-0.151
	c0.037,0.085,0.1,0.158,0.086,0.209c-0.128,0.453-0.241,0.912-0.48,1.326c-0.511,0.889-0.926,1.824-1.327,2.766
	c-0.061,0.144-0.104,0.297-0.151,0.447c-0.169,0.552,0.054,1.009,0.381,1.422c0.204,0.258,0.452,0.27,0.733,0.092
	c0.239-0.151,0.427-0.345,0.534-0.613C106.614,49.309,106.629,49.153,106.801,49.123z"/>
<path fill="#FFFFFF" d="M33.69,9.879c0.005-0.018,0.004-0.039,0.014-0.05c0.011-0.012,0.033-0.014,0.05-0.02
	c-0.005,0.023-0.005,0.048-0.016,0.069C33.734,9.884,33.707,9.879,33.69,9.879z"/>
</svg>
